<svg width="160" height="160" viewBox="0 0 160 160" fill="none" xmlns="http://www.w3.org/2000/svg">
<rect width="160" height="160" rx="20" fill="hsl(220, 24%, 34%)"/>
<path d="M35.6522 117.661C35.6522 119.169 34.7589 119.923 32.9721 119.923H22.1441C20.7147 119.923 20 119.277 20 117.984V105.812C20 104.592 20.5003 103.981 21.5009 103.981H34.1513C35.1519 103.981 35.6522 104.52 35.6522 105.597V117.661Z" fill="hsl(220, 24%, 67%)"/>
<path d="M78.9966 62.8351C79.5684 62.8351 79.9972 63.0146 80.2831 63.3737C80.569 63.6609 80.7119 64.0199 80.7119 64.4508V71.2367C80.7119 72.1702 80.1759 72.637 79.1038 72.637H69.1336C68.4188 72.637 68.0615 72.996 68.0615 73.7141V118.092C68.0615 119.312 67.5254 119.923 66.4534 119.923H55.6255C54.6248 119.923 54.1245 119.348 54.1245 118.199V73.6064C54.1245 72.9601 53.8744 72.637 53.3741 72.637H44.6903C43.6182 72.637 43.0822 72.1702 43.0822 71.2367V64.4508C43.0822 64.0199 43.1894 63.6609 43.4038 63.3737C43.6897 63.0146 44.1543 62.8351 44.7975 62.8351H52.9453C53.7315 62.8351 54.1245 62.3684 54.1245 61.4348V54.4335C54.1245 49.8378 55.3753 46.2832 57.8768 43.7699C60.4498 41.2566 64.1306 40 68.9191 40H79.1038C80.4618 40 81.1408 40.6463 81.1408 41.9388L81.248 47.9707C81.248 48.4016 81.105 48.7606 80.8191 49.0479C80.6047 49.3351 80.2474 49.4787 79.7471 49.4787H73.4218C71.5636 49.4787 70.1342 50.125 69.1336 51.4176C68.2044 52.7101 67.7399 54.3617 67.7399 56.3723V61.758C67.7399 62.4761 68.133 62.8351 68.9191 62.8351H78.9966Z" fill="hsl(220, 24%, 67%)"/>
<path d="M99.1541 95.7952C99.1541 98.7394 99.8331 101.396 101.191 103.766C102.549 106.064 104.407 107.895 106.766 109.259C109.196 110.552 111.84 111.198 114.699 111.198C117.629 111.198 120.274 110.588 122.632 109.367C125.062 108.146 127.35 106.172 129.494 103.443C129.78 103.084 130.03 102.904 130.244 102.904C130.459 102.832 130.816 102.94 131.316 103.227L137.856 106.136C138.785 106.566 138.892 107.213 138.177 108.074C136.033 111.234 133.711 113.783 131.209 115.722C128.779 117.589 126.063 118.953 123.061 119.815C120.131 120.605 116.808 121 113.091 121C107.659 121 102.799 119.779 98.5108 117.338C94.2225 114.896 90.8276 111.521 88.3261 107.213C85.8961 102.832 84.6811 97.8058 84.6811 92.133C84.6811 85.8856 85.9318 80.5 88.4334 75.9761C91.0063 71.4521 94.437 67.9694 98.7252 65.5279C103.014 63.0146 107.731 61.758 112.877 61.758C118.308 61.758 123.026 62.9428 127.028 65.3125C131.102 67.6822 134.282 71.0931 136.569 75.5452C138.856 79.9255 140 85.2753 140 91.5944C140 92.3125 139.929 92.887 139.786 93.3178C139.714 93.7487 139.214 94 138.285 94.0718H100.333C99.9045 94.0718 99.5829 94.2154 99.3685 94.5027C99.2255 94.7899 99.1541 95.2207 99.1541 95.7952ZM124.562 86.1011C125.277 86.1011 125.741 86.0293 125.956 85.8856C126.242 85.6702 126.385 85.2394 126.385 84.5931C126.385 82.367 125.884 80.1769 124.884 78.0226C123.883 75.8684 122.418 74.109 120.488 72.7447C118.559 71.3085 116.2 70.5904 113.413 70.5904C110.554 70.5904 108.052 71.3085 105.908 72.7447C103.764 74.109 102.12 75.9761 100.977 78.3457C99.9045 80.6436 99.3685 83.2287 99.3685 86.1011H124.562Z" fill="hsl(220, 24%, 90%)"/>
</svg>
