<svg xmlns="http://www.w3.org/2000/svg" style="isolation:isolate" viewBox="0 0 256 256" width="128" height="128">
  <path d="M 32 0 L 224 0 C 241.661 0 256 14.339 256 32 L 256 224 C 256 241.661 241.661 256 224 256 L 32 256 C 14.339 256 0 241.661 0 224 L 0 32 C 0 14.339 14.339 0 32 0 Z" fill="#eaeaea"/>
  <path d=" M 212.77 144.003 L 161.488 144.003 L 161.488 144.003 Q 161.488 157.568 169.776 164.662 L 169.776 164.662 L 169.776 164.662 Q 178.063 171.756 190.173 171.756 L 190.173 171.756 L 190.173 171.756 Q 198.765 171.756 203.67 168.552 L 203.67 168.552 L 203.67 168.552 Q 208.575 165.349 213.04 161.235 L 213.04 161.235 L 213.04 161.235 Q 214.055 160.358 215.205 159.92 L 215.205 159.92 L 215.205 159.92 Q 216.355 159.481 217.505 159.481 L 217.505 159.481 L 217.505 159.481 Q 220.211 159.481 222.106 161.135 L 222.106 161.135 L 222.106 161.135 Q 224 162.788 224 165.555 L 224 165.555 L 224 165.555 Q 224 174.193 211.45 179.153 L 211.45 179.153 L 211.45 179.153 Q 198.901 184.113 189.632 184.113 L 189.632 184.113 L 189.632 184.113 Q 171.095 184.113 159.087 173.14 L 159.087 173.14 L 159.087 173.14 Q 147.078 162.167 147.078 143.598 L 147.078 143.598 L 147.078 143.598 Q 147.078 125.232 158.106 113.719 L 158.106 113.719 L 158.106 113.719 Q 169.133 102.206 188.008 102.206 L 188.008 102.206 L 188.008 102.206 Q 201.539 102.206 212.702 111.727 L 212.702 111.727 L 212.702 111.727 Q 223.865 121.248 223.865 136.304 L 223.865 136.304 L 223.865 136.304 Q 223.865 141.46 220.719 142.491 L 220.719 142.491 L 220.719 142.491 Q 217.573 143.522 212.77 144.003 L 212.77 144.003 Z  M 206.884 131.376 L 206.884 131.376 L 206.884 131.376 Q 206.884 121.72 200.964 117.703 L 200.964 117.703 L 200.964 117.703 Q 195.044 113.685 188.008 113.685 L 188.008 113.685 L 188.008 113.685 Q 176.101 113.685 169.099 119.43 L 169.099 119.43 L 169.099 119.43 Q 162.097 125.175 161.218 134.685 L 161.218 134.685 L 201.877 134.685 L 201.877 134.685 Q 203.772 134.685 205.328 133.936 L 205.328 133.936 L 205.328 133.936 Q 206.884 133.188 206.884 131.376 L 206.884 131.376 Z " fill-rule="evenodd" fill="rgb(39,39,39)"/>
  <path d=" M 136.186 87.148 L 136.186 87.148 L 136.186 87.148 Q 133.683 87.148 131.856 85.899 L 131.856 85.899 L 131.856 85.899 Q 130.03 84.65 130.03 82.016 L 130.03 82.016 L 130.03 77.357 L 130.03 77.357 Q 119.273 78.302 115.416 83.299 L 115.416 83.299 L 115.416 83.299 Q 111.56 88.296 111.56 99.302 L 111.56 99.302 L 111.56 99.302 Q 111.56 99.977 111.594 100.653 L 111.594 100.653 L 111.594 100.653 Q 111.628 101.328 111.628 102.003 L 111.628 102.003 L 111.763 106.662 L 126.579 106.662 L 126.579 106.662 Q 129.15 106.662 130.3 108.519 L 130.3 108.519 L 130.3 108.519 Q 131.45 110.376 131.45 112.875 L 131.45 112.875 L 131.45 112.875 Q 131.45 115.103 130.131 116.825 L 130.131 116.825 L 130.131 116.825 Q 128.812 118.547 126.444 118.547 L 126.444 118.547 L 111.628 118.547 L 111.763 170.54 L 128.812 170.54 L 128.812 170.54 Q 131.383 170.54 132.533 172.397 L 132.533 172.397 L 132.533 172.397 Q 133.683 174.254 133.683 176.752 L 133.683 176.752 L 133.683 176.752 Q 133.683 178.981 132.364 180.703 L 132.364 180.703 L 132.364 180.703 Q 131.044 182.424 128.677 182.424 L 128.677 182.424 L 83.349 182.424 L 83.349 182.424 Q 80.507 182.424 79.154 180.804 L 79.154 180.804 L 79.154 180.804 Q 77.801 179.183 77.801 176.617 L 77.801 176.617 L 77.801 176.617 Q 77.801 174.119 79.053 172.33 L 79.053 172.33 L 79.053 172.33 Q 80.304 170.54 82.943 170.54 L 82.943 170.54 L 97.894 170.54 L 97.894 118.547 L 85.852 118.547 L 85.852 118.547 Q 83.011 118.547 81.658 116.926 L 81.658 116.926 L 81.658 116.926 Q 80.304 115.305 80.304 112.74 L 80.304 112.74 L 80.304 112.74 Q 80.304 110.241 81.556 108.452 L 81.556 108.452 L 81.556 108.452 Q 82.808 106.662 85.446 106.662 L 85.446 106.662 L 97.894 106.662 L 97.894 99.572 L 97.894 99.572 Q 97.894 81.814 108.042 73.407 L 108.042 73.407 L 108.042 73.407 Q 118.19 65 136.321 65 L 136.321 65 L 136.321 65 Q 138.554 65 140.279 66.317 L 140.279 66.317 L 140.279 66.317 Q 142.004 67.633 142.004 69.997 L 142.004 69.997 L 142.004 81.611 L 142.004 81.611 Q 142.004 84.447 140.381 85.797 L 140.381 85.797 L 140.381 85.797 Q 138.757 87.148 136.186 87.148 L 136.186 87.148 Z  M 46.275 191 L 46.275 191 L 46.275 191 Q 40.118 191 36.059 186.915 L 36.059 186.915 L 36.059 186.915 Q 32 182.83 32 176.752 L 32 176.752 L 32 176.752 Q 32 170.608 36.093 166.556 L 36.093 166.556 L 36.093 166.556 Q 40.186 162.505 46.275 162.505 L 46.275 162.505 L 46.275 162.505 Q 52.431 162.505 56.49 166.59 L 56.49 166.59 L 56.49 166.59 Q 60.55 170.675 60.55 176.752 L 60.55 176.752 L 60.55 176.752 Q 60.55 182.897 56.457 186.949 L 56.457 186.949 L 56.457 186.949 Q 52.364 191 46.275 191 L 46.275 191 Z " fill-rule="evenodd" fill="rgb(105,105,105)"/>
</svg>
