<svg width="960" height="128" viewBox="0 0 960 128" fill="none" xmlns="http://www.w3.org/2000/svg">
<rect width="960" height="128" rx="12" fill="hsl(220, 24%, 78%)"/>
<path d="M378.624 82.576C377.152 82.576 375.808 82.4 374.592 82.048C373.408 81.664 372.352 81.184 371.424 80.608C370.496 80.032 369.712 79.408 369.072 78.736C368.464 78.032 368.016 77.344 367.728 76.672C367.664 76.512 367.632 76.336 367.632 76.144C367.664 75.952 367.792 75.808 368.016 75.712L372.384 74.224C372.608 74.16 372.784 74.192 372.912 74.32C373.072 74.416 373.184 74.528 373.248 74.656C373.888 75.52 374.608 76.224 375.408 76.768C376.208 77.28 377.28 77.536 378.624 77.536C380.416 77.536 381.904 77.088 383.088 76.192C384.304 75.296 385.216 74.064 385.824 72.496C386.432 70.896 386.736 69.088 386.736 67.072C386.736 66.496 386.672 66.144 386.544 66.016C386.448 65.888 386.176 65.92 385.728 66.112C384.64 66.624 383.504 67.088 382.32 67.504C381.136 67.92 379.712 68.128 378.048 68.128C375.616 68.128 373.488 67.68 371.664 66.784C369.872 65.888 368.48 64.64 367.488 63.04C366.496 61.44 366 59.632 366 57.616C366 55.344 366.592 53.344 367.776 51.616C368.96 49.888 370.56 48.544 372.576 47.584C374.624 46.592 376.896 46.096 379.392 46.096C382.368 46.096 384.928 46.816 387.072 48.256C389.216 49.664 390.864 51.68 392.016 54.304C393.2 56.928 393.792 60.048 393.792 63.664C393.792 67.568 393.168 70.944 391.92 73.792C390.672 76.608 388.912 78.784 386.64 80.32C384.368 81.824 381.696 82.576 378.624 82.576ZM379.344 63.376C380.112 63.376 380.896 63.296 381.696 63.136C382.528 62.944 383.312 62.704 384.048 62.416C384.816 62.096 385.44 61.76 385.92 61.408C386.208 61.184 386.4 60.96 386.496 60.736C386.624 60.512 386.688 60.144 386.688 59.632C386.688 58.576 386.528 57.536 386.208 56.512C385.92 55.456 385.472 54.512 384.864 53.68C384.288 52.816 383.552 52.128 382.656 51.616C381.76 51.104 380.72 50.848 379.536 50.848C378.32 50.848 377.216 51.136 376.224 51.712C375.232 52.288 374.448 53.072 373.872 54.064C373.296 55.024 373.008 56.112 373.008 57.328C373.008 58.512 373.28 59.568 373.824 60.496C374.368 61.392 375.12 62.096 376.08 62.608C377.04 63.12 378.128 63.376 379.344 63.376Z" fill="hsl(220, 24%, 44%)"/>
<path d="M414.087 46.096C415.527 46.096 416.823 46.288 417.975 46.672C419.159 47.024 420.199 47.488 421.095 48.064C422.023 48.64 422.791 49.28 423.399 49.984C424.039 50.656 424.487 51.312 424.743 51.952C424.807 52.144 424.839 52.336 424.839 52.528C424.839 52.688 424.711 52.816 424.455 52.912L420.087 54.448C419.863 54.512 419.671 54.48 419.511 54.352C419.383 54.224 419.287 54.096 419.223 53.968C418.615 53.136 417.927 52.464 417.159 51.952C416.391 51.408 415.367 51.136 414.087 51.136C412.263 51.136 410.727 51.584 409.479 52.48C408.263 53.376 407.351 54.608 406.743 56.176C406.135 57.744 405.831 59.536 405.831 61.552C405.831 62.128 405.879 62.48 405.975 62.608C406.103 62.736 406.375 62.704 406.791 62.512C407.943 62.032 409.111 61.584 410.295 61.168C411.479 60.752 412.919 60.544 414.615 60.544C417.079 60.544 419.207 60.992 420.999 61.888C422.823 62.784 424.231 64.032 425.223 65.632C426.215 67.2 426.711 69.008 426.711 71.056C426.711 73.296 426.103 75.296 424.887 77.056C423.703 78.784 422.103 80.144 420.087 81.136C418.071 82.096 415.815 82.576 413.319 82.576C410.343 82.576 407.767 81.872 405.591 80.464C403.415 79.024 401.735 76.992 400.551 74.368C399.367 71.744 398.775 68.624 398.775 65.008C398.775 61.072 399.399 57.696 400.647 54.88C401.927 52.064 403.703 49.904 405.975 48.4C408.279 46.864 410.983 46.096 414.087 46.096ZM413.271 65.296C412.567 65.296 411.783 65.392 410.919 65.584C410.087 65.744 409.287 65.968 408.519 66.256C407.783 66.512 407.175 66.8 406.695 67.12C406.375 67.344 406.167 67.568 406.071 67.792C405.975 68.016 405.927 68.384 405.927 68.896C405.927 69.984 406.071 71.056 406.359 72.112C406.679 73.136 407.143 74.08 407.751 74.944C408.359 75.808 409.111 76.496 410.007 77.008C410.903 77.52 411.959 77.776 413.175 77.776C414.391 77.776 415.495 77.504 416.487 76.96C417.479 76.384 418.263 75.616 418.839 74.656C419.415 73.664 419.703 72.544 419.703 71.296C419.703 70.112 419.431 69.072 418.887 68.176C418.343 67.28 417.591 66.576 416.631 66.064C415.671 65.552 414.551 65.296 413.271 65.296Z" fill="hsl(220, 24%, 44%)"/>
<path d="M445.659 46C447.707 46 449.595 46.432 451.323 47.296C453.051 48.128 454.555 49.344 455.835 50.944C457.147 52.544 458.155 54.48 458.859 56.752C459.563 59.024 459.915 61.584 459.915 64.432C459.915 68.208 459.291 71.456 458.043 74.176C456.827 76.864 455.147 78.944 453.003 80.416C450.859 81.856 448.395 82.576 445.611 82.576C442.859 82.576 440.395 81.856 438.219 80.416C436.043 78.944 434.331 76.864 433.083 74.176C431.867 71.488 431.259 68.256 431.259 64.48C431.259 61.6 431.611 59.04 432.315 56.8C433.051 54.528 434.059 52.592 435.339 50.992C436.651 49.36 438.171 48.128 439.899 47.296C441.659 46.432 443.579 46 445.659 46ZM445.611 77.488C447.147 77.488 448.443 77.056 449.499 76.192C450.555 75.296 451.355 73.904 451.899 72.016C452.443 70.096 452.715 67.584 452.715 64.48C452.715 61.28 452.427 58.704 451.851 56.752C451.307 54.768 450.507 53.328 449.451 52.432C448.395 51.504 447.115 51.04 445.611 51.04C444.107 51.04 442.827 51.504 441.771 52.432C440.715 53.328 439.899 54.768 439.323 56.752C438.747 58.736 438.459 61.312 438.459 64.48C438.459 67.552 438.747 70.048 439.323 71.968C439.899 73.888 440.715 75.296 441.771 76.192C442.827 77.056 444.107 77.488 445.611 77.488Z" fill="hsl(220, 24%, 44%)"/>
<path d="M498.514 80.752C498.898 81.264 499.059 81.632 498.995 81.856C498.963 82.048 498.707 82.144 498.227 82.144H493.043C492.403 82.144 491.938 81.936 491.65 81.52L486.082 73.696C485.858 73.376 485.682 73.216 485.554 73.216C485.458 73.216 485.283 73.376 485.027 73.696L479.314 81.52C479.026 81.936 478.563 82.144 477.923 82.144H474.562C474.082 82.144 473.763 82.016 473.603 81.76C473.443 81.504 473.602 81.072 474.082 80.464L482.243 70C482.435 69.744 482.514 69.52 482.482 69.328C482.482 69.136 482.387 68.912 482.195 68.656L474.227 57.856C474.035 57.6 473.986 57.344 474.082 57.088C474.21 56.832 474.467 56.704 474.851 56.704H479.795C480.147 56.704 480.418 56.752 480.61 56.848C480.802 56.944 480.979 57.104 481.139 57.328L486.274 64.528C486.53 64.912 486.787 64.912 487.043 64.528L491.987 57.328C492.147 57.104 492.323 56.944 492.515 56.848C492.707 56.752 492.978 56.704 493.33 56.704H497.027C497.443 56.704 497.667 56.8 497.699 56.992C497.731 57.184 497.667 57.408 497.507 57.664L490.019 67.744C489.827 68 489.73 68.224 489.73 68.416C489.762 68.608 489.874 68.832 490.066 69.088L498.514 80.752Z" fill="hsl(220, 24%, 44%)"/>
<path d="M531.259 76.816C531.771 76.816 532.027 77.04 532.027 77.488V81.424C532.027 81.584 531.963 81.744 531.835 81.904C531.707 82.064 531.499 82.144 531.211 82.144H512.971C512.459 82.144 512.203 81.92 512.203 81.472V77.488C512.203 77.04 512.443 76.816 512.923 76.816H518.299C518.587 76.816 518.731 76.72 518.731 76.528V54.208C518.731 53.792 518.539 53.632 518.155 53.728L513.067 55.408C512.459 55.568 512.155 55.312 512.155 54.64V51.856C512.155 51.568 512.203 51.376 512.299 51.28C512.395 51.152 512.555 51.024 512.779 50.896L520.507 47.008C520.891 46.816 521.195 46.688 521.419 46.624C521.675 46.56 521.979 46.528 522.331 46.528H525.211C525.627 46.528 525.835 46.784 525.835 47.296V76.384C525.835 76.672 525.979 76.816 526.267 76.816H531.259Z" fill="hsl(220, 24%, 44%)"/>
<path d="M547.058 66.88C548.53 65.568 549.73 64.432 550.658 63.472C551.618 62.512 552.37 61.648 552.914 60.88C553.49 60.112 553.89 59.392 554.114 58.72C554.338 58.016 554.45 57.28 554.45 56.512C554.45 55.392 554.162 54.448 553.586 53.68C553.042 52.912 552.322 52.32 551.426 51.904C550.562 51.488 549.586 51.28 548.498 51.28C547.634 51.28 546.77 51.44 545.906 51.76C545.042 52.08 544.194 52.608 543.362 53.344C542.562 54.048 541.81 55.008 541.106 56.224C541.01 56.416 540.85 56.528 540.626 56.56C540.434 56.592 540.194 56.528 539.906 56.368L536.354 54.496C536.066 54.336 535.906 54.128 535.874 53.872C535.842 53.616 535.922 53.36 536.114 53.104C537.682 50.672 539.554 48.896 541.73 47.776C543.938 46.624 546.354 46.048 548.978 46.048C551.346 46.048 553.458 46.464 555.314 47.296C557.17 48.096 558.642 49.28 559.73 50.848C560.818 52.416 561.362 54.32 561.362 56.56C561.362 57.904 561.122 59.168 560.642 60.352C560.194 61.536 559.442 62.736 558.386 63.952C557.33 65.168 555.922 66.512 554.162 67.984L544.994 75.712C544.802 75.84 544.706 75.968 544.706 76.096C544.738 76.224 544.93 76.288 545.282 76.288H560.882C561.426 76.288 561.698 76.512 561.698 76.96V81.376C561.698 81.6 561.634 81.792 561.506 81.952C561.378 82.08 561.154 82.144 560.834 82.144H536.786C536.402 82.144 536.13 82.08 535.97 81.952C535.842 81.824 535.778 81.584 535.778 81.232V78.112C535.778 77.92 535.81 77.744 535.874 77.584C535.97 77.392 536.146 77.152 536.402 76.864C536.69 76.544 537.122 76.144 537.698 75.664L547.058 66.88Z" fill="hsl(220, 24%, 44%)"/>
<path d="M580.079 46.048C582.543 46.048 584.719 46.48 586.607 47.344C588.527 48.176 590.03 49.328 591.118 50.8C592.206 52.272 592.751 53.984 592.751 55.936C592.751 57.312 592.366 58.576 591.598 59.728C590.83 60.848 589.647 61.904 588.047 62.896C587.535 63.184 587.519 63.456 587.999 63.712C589.535 64.448 590.767 65.248 591.695 66.112C592.623 66.976 593.294 67.92 593.71 68.944C594.126 69.968 594.335 71.088 594.335 72.304C594.335 74.416 593.726 76.256 592.51 77.824C591.294 79.392 589.599 80.592 587.423 81.424C585.247 82.224 582.719 82.624 579.839 82.624C577.119 82.624 574.734 82.272 572.686 81.568C570.638 80.832 569.054 79.776 567.934 78.4C566.814 76.992 566.255 75.312 566.255 73.36C566.255 71.728 566.654 70.272 567.454 68.992C568.286 67.68 569.727 66.432 571.775 65.248C572.095 65.088 572.271 64.944 572.303 64.816C572.335 64.688 572.174 64.528 571.822 64.336C570.99 63.792 570.222 63.184 569.518 62.512C568.814 61.808 568.255 60.992 567.839 60.064C567.423 59.136 567.214 58.032 567.214 56.752C567.214 54.8 567.727 53.024 568.751 51.424C569.807 49.792 571.294 48.496 573.214 47.536C575.134 46.544 577.423 46.048 580.079 46.048ZM580.174 50.848C578.99 50.848 577.918 51.072 576.958 51.52C575.998 51.936 575.246 52.528 574.702 53.296C574.158 54.064 573.887 54.96 573.887 55.984C573.887 58.256 575.183 59.728 577.775 60.4L581.951 61.552C582.399 61.68 582.895 61.6 583.439 61.312C583.983 61.024 584.495 60.608 584.975 60.064C585.487 59.52 585.903 58.896 586.223 58.192C586.543 57.456 586.702 56.736 586.702 56.032C586.702 54.56 586.127 53.328 584.975 52.336C583.823 51.344 582.222 50.848 580.174 50.848ZM580.27 77.824C582.446 77.824 584.158 77.376 585.406 76.48C586.654 75.552 587.279 74.304 587.279 72.736C587.279 71.616 586.958 70.672 586.318 69.904C585.71 69.104 584.607 68.496 583.007 68.08L577.87 66.688C577.39 66.56 576.831 66.608 576.191 66.832C575.583 67.056 574.975 67.424 574.367 67.936C573.791 68.448 573.31 69.088 572.926 69.856C572.542 70.624 572.35 71.456 572.35 72.352C572.35 74.048 572.99 75.392 574.27 76.384C575.582 77.344 577.582 77.824 580.27 77.824Z" fill="hsl(220, 24%, 44%)"/>
</svg>
