<svg width="560" height="128" viewBox="0 0 560 128" fill="none" xmlns="http://www.w3.org/2000/svg">
<rect width="560" height="128" rx="12" fill="hsl(220, 24%, 78%)"/>
<path d="M190.773 46.528C191.253 46.528 191.541 46.592 191.637 46.72C191.733 46.848 191.765 47.104 191.733 47.488L191.541 51.52C191.509 51.808 191.429 52.016 191.301 52.144C191.205 52.24 190.965 52.288 190.581 52.288H175.029C174.549 52.288 174.309 52.496 174.309 52.912L173.637 60.496C173.605 60.752 173.653 60.944 173.781 61.072C173.941 61.168 174.101 61.168 174.261 61.072C175.509 60.592 176.661 60.192 177.717 59.872C178.773 59.52 180.037 59.344 181.509 59.344C183.813 59.344 185.909 59.76 187.797 60.592C189.685 61.392 191.189 62.624 192.309 64.288C193.461 65.92 194.037 68 194.037 70.528C194.037 73.056 193.429 75.232 192.213 77.056C190.997 78.848 189.317 80.224 187.173 81.184C185.061 82.144 182.613 82.624 179.829 82.624C176.949 82.624 174.325 82.144 171.957 81.184C169.589 80.192 167.717 78.832 166.341 77.104C166.149 76.848 166.037 76.608 166.005 76.384C165.973 76.16 166.101 75.936 166.389 75.712L169.701 73.312C170.085 73.024 170.453 73.088 170.805 73.504C171.605 74.272 172.389 74.976 173.157 75.616C173.925 76.224 174.773 76.704 175.701 77.056C176.629 77.408 177.733 77.584 179.013 77.584C180.709 77.584 182.149 77.296 183.333 76.72C184.549 76.112 185.461 75.296 186.069 74.272C186.709 73.216 187.029 72.032 187.029 70.72C187.029 69.408 186.725 68.288 186.117 67.36C185.541 66.4 184.725 65.68 183.669 65.2C182.613 64.688 181.397 64.432 180.021 64.432C178.709 64.432 177.509 64.656 176.421 65.104C175.333 65.552 174.229 66.064 173.109 66.64C172.853 66.768 172.677 66.832 172.581 66.832C172.485 66.8 172.293 66.72 172.005 66.592L168.357 64.576C168.037 64.384 167.861 64.208 167.829 64.048C167.829 63.888 167.845 63.6 167.877 63.184L169.221 47.488C169.253 47.104 169.349 46.848 169.509 46.72C169.701 46.592 170.101 46.528 170.709 46.528H190.773Z" fill="hsl(220, 24%, 44%)"/>
<path d="M214.002 46.096C215.442 46.096 216.738 46.288 217.89 46.672C219.074 47.024 220.114 47.488 221.01 48.064C221.938 48.64 222.706 49.28 223.314 49.984C223.954 50.656 224.402 51.312 224.658 51.952C224.722 52.144 224.754 52.336 224.754 52.528C224.754 52.688 224.626 52.816 224.37 52.912L220.002 54.448C219.778 54.512 219.586 54.48 219.426 54.352C219.298 54.224 219.202 54.096 219.138 53.968C218.53 53.136 217.842 52.464 217.074 51.952C216.306 51.408 215.282 51.136 214.002 51.136C212.178 51.136 210.642 51.584 209.394 52.48C208.178 53.376 207.266 54.608 206.658 56.176C206.05 57.744 205.746 59.536 205.746 61.552C205.746 62.128 205.794 62.48 205.89 62.608C206.018 62.736 206.29 62.704 206.706 62.512C207.858 62.032 209.026 61.584 210.21 61.168C211.394 60.752 212.834 60.544 214.53 60.544C216.994 60.544 219.122 60.992 220.914 61.888C222.738 62.784 224.146 64.032 225.138 65.632C226.13 67.2 226.626 69.008 226.626 71.056C226.626 73.296 226.018 75.296 224.802 77.056C223.618 78.784 222.018 80.144 220.002 81.136C217.986 82.096 215.73 82.576 213.234 82.576C210.258 82.576 207.682 81.872 205.506 80.464C203.33 79.024 201.65 76.992 200.466 74.368C199.282 71.744 198.69 68.624 198.69 65.008C198.69 61.072 199.314 57.696 200.562 54.88C201.842 52.064 203.618 49.904 205.89 48.4C208.194 46.864 210.898 46.096 214.002 46.096ZM213.186 65.296C212.482 65.296 211.698 65.392 210.834 65.584C210.002 65.744 209.202 65.968 208.434 66.256C207.698 66.512 207.09 66.8 206.61 67.12C206.29 67.344 206.082 67.568 205.986 67.792C205.89 68.016 205.842 68.384 205.842 68.896C205.842 69.984 205.986 71.056 206.274 72.112C206.594 73.136 207.058 74.08 207.666 74.944C208.274 75.808 209.026 76.496 209.922 77.008C210.818 77.52 211.874 77.776 213.09 77.776C214.306 77.776 215.41 77.504 216.402 76.96C217.394 76.384 218.178 75.616 218.754 74.656C219.33 73.664 219.618 72.544 219.618 71.296C219.618 70.112 219.346 69.072 218.802 68.176C218.258 67.28 217.506 66.576 216.546 66.064C215.586 65.552 214.466 65.296 213.186 65.296Z" fill="hsl(220, 24%, 44%)"/>
<path d="M245.575 46C247.623 46 249.511 46.432 251.239 47.296C252.967 48.128 254.471 49.344 255.751 50.944C257.063 52.544 258.071 54.48 258.775 56.752C259.479 59.024 259.831 61.584 259.831 64.432C259.831 68.208 259.207 71.456 257.959 74.176C256.743 76.864 255.063 78.944 252.919 80.416C250.775 81.856 248.311 82.576 245.527 82.576C242.775 82.576 240.311 81.856 238.135 80.416C235.959 78.944 234.247 76.864 232.999 74.176C231.783 71.488 231.175 68.256 231.175 64.48C231.175 61.6 231.527 59.04 232.231 56.8C232.967 54.528 233.975 52.592 235.255 50.992C236.567 49.36 238.087 48.128 239.815 47.296C241.575 46.432 243.495 46 245.575 46ZM245.527 77.488C247.063 77.488 248.359 77.056 249.415 76.192C250.471 75.296 251.271 73.904 251.815 72.016C252.359 70.096 252.631 67.584 252.631 64.48C252.631 61.28 252.343 58.704 251.767 56.752C251.223 54.768 250.423 53.328 249.367 52.432C248.311 51.504 247.031 51.04 245.527 51.04C244.023 51.04 242.743 51.504 241.687 52.432C240.631 53.328 239.815 54.768 239.239 56.752C238.663 58.736 238.375 61.312 238.375 64.48C238.375 67.552 238.663 70.048 239.239 71.968C239.815 73.888 240.631 75.296 241.687 76.192C242.743 77.056 244.023 77.488 245.527 77.488Z" fill="hsl(220, 24%, 44%)"/>
<path d="M298.43 80.752C298.814 81.264 298.974 81.632 298.91 81.856C298.878 82.048 298.622 82.144 298.142 82.144H292.958C292.318 82.144 291.854 81.936 291.566 81.52L285.998 73.696C285.774 73.376 285.598 73.216 285.47 73.216C285.374 73.216 285.198 73.376 284.942 73.696L279.23 81.52C278.942 81.936 278.478 82.144 277.838 82.144H274.478C273.998 82.144 273.678 82.016 273.518 81.76C273.358 81.504 273.518 81.072 273.998 80.464L282.158 70C282.35 69.744 282.43 69.52 282.398 69.328C282.398 69.136 282.302 68.912 282.11 68.656L274.142 57.856C273.95 57.6 273.902 57.344 273.998 57.088C274.126 56.832 274.382 56.704 274.766 56.704H279.71C280.062 56.704 280.334 56.752 280.526 56.848C280.718 56.944 280.894 57.104 281.054 57.328L286.19 64.528C286.446 64.912 286.702 64.912 286.958 64.528L291.902 57.328C292.062 57.104 292.238 56.944 292.43 56.848C292.622 56.752 292.894 56.704 293.246 56.704H296.942C297.358 56.704 297.582 56.8 297.614 56.992C297.646 57.184 297.582 57.408 297.422 57.664L289.934 67.744C289.742 68 289.646 68.224 289.646 68.416C289.678 68.608 289.79 68.832 289.982 69.088L298.43 80.752Z" fill="hsl(220, 24%, 44%)"/>
<path d="M331.175 76.816C331.687 76.816 331.943 77.04 331.943 77.488V81.424C331.943 81.584 331.879 81.744 331.751 81.904C331.623 82.064 331.415 82.144 331.127 82.144H312.887C312.375 82.144 312.119 81.92 312.119 81.472V77.488C312.119 77.04 312.359 76.816 312.839 76.816H318.215C318.503 76.816 318.647 76.72 318.647 76.528V54.208C318.647 53.792 318.455 53.632 318.071 53.728L312.983 55.408C312.375 55.568 312.071 55.312 312.071 54.64V51.856C312.071 51.568 312.119 51.376 312.215 51.28C312.311 51.152 312.471 51.024 312.695 50.896L320.423 47.008C320.807 46.816 321.111 46.688 321.335 46.624C321.591 46.56 321.895 46.528 322.247 46.528H325.127C325.543 46.528 325.751 46.784 325.751 47.296V76.384C325.751 76.672 325.895 76.816 326.183 76.816H331.175Z" fill="hsl(220, 24%, 44%)"/>
<path d="M346.973 66.88C348.445 65.568 349.645 64.432 350.573 63.472C351.533 62.512 352.285 61.648 352.829 60.88C353.405 60.112 353.805 59.392 354.029 58.72C354.253 58.016 354.365 57.28 354.365 56.512C354.365 55.392 354.077 54.448 353.501 53.68C352.957 52.912 352.237 52.32 351.341 51.904C350.477 51.488 349.501 51.28 348.413 51.28C347.549 51.28 346.685 51.44 345.821 51.76C344.957 52.08 344.109 52.608 343.277 53.344C342.477 54.048 341.725 55.008 341.021 56.224C340.925 56.416 340.765 56.528 340.541 56.56C340.349 56.592 340.109 56.528 339.821 56.368L336.269 54.496C335.981 54.336 335.821 54.128 335.789 53.872C335.757 53.616 335.837 53.36 336.029 53.104C337.597 50.672 339.469 48.896 341.645 47.776C343.853 46.624 346.269 46.048 348.893 46.048C351.261 46.048 353.373 46.464 355.229 47.296C357.085 48.096 358.557 49.28 359.645 50.848C360.733 52.416 361.277 54.32 361.277 56.56C361.277 57.904 361.037 59.168 360.557 60.352C360.109 61.536 359.357 62.736 358.301 63.952C357.245 65.168 355.837 66.512 354.077 67.984L344.909 75.712C344.717 75.84 344.621 75.968 344.621 76.096C344.653 76.224 344.845 76.288 345.197 76.288H360.797C361.341 76.288 361.613 76.512 361.613 76.96V81.376C361.613 81.6 361.549 81.792 361.421 81.952C361.293 82.08 361.069 82.144 360.749 82.144H336.701C336.317 82.144 336.045 82.08 335.885 81.952C335.757 81.824 335.693 81.584 335.693 81.232V78.112C335.693 77.92 335.725 77.744 335.789 77.584C335.885 77.392 336.061 77.152 336.317 76.864C336.605 76.544 337.037 76.144 337.613 75.664L346.973 66.88Z" fill="hsl(220, 24%, 44%)"/>
<path d="M379.994 46.048C382.458 46.048 384.634 46.48 386.522 47.344C388.442 48.176 389.946 49.328 391.034 50.8C392.122 52.272 392.666 53.984 392.666 55.936C392.666 57.312 392.282 58.576 391.514 59.728C390.746 60.848 389.562 61.904 387.962 62.896C387.45 63.184 387.434 63.456 387.914 63.712C389.45 64.448 390.682 65.248 391.61 66.112C392.538 66.976 393.21 67.92 393.626 68.944C394.042 69.968 394.25 71.088 394.25 72.304C394.25 74.416 393.642 76.256 392.426 77.824C391.21 79.392 389.514 80.592 387.338 81.424C385.162 82.224 382.634 82.624 379.754 82.624C377.034 82.624 374.65 82.272 372.602 81.568C370.554 80.832 368.97 79.776 367.85 78.4C366.73 76.992 366.17 75.312 366.17 73.36C366.17 71.728 366.57 70.272 367.37 68.992C368.202 67.68 369.642 66.432 371.69 65.248C372.01 65.088 372.186 64.944 372.218 64.816C372.25 64.688 372.09 64.528 371.738 64.336C370.906 63.792 370.138 63.184 369.434 62.512C368.73 61.808 368.17 60.992 367.754 60.064C367.338 59.136 367.13 58.032 367.13 56.752C367.13 54.8 367.642 53.024 368.666 51.424C369.722 49.792 371.21 48.496 373.13 47.536C375.05 46.544 377.338 46.048 379.994 46.048ZM380.09 50.848C378.906 50.848 377.834 51.072 376.874 51.52C375.914 51.936 375.162 52.528 374.618 53.296C374.074 54.064 373.802 54.96 373.802 55.984C373.802 58.256 375.098 59.728 377.69 60.4L381.866 61.552C382.314 61.68 382.81 61.6 383.354 61.312C383.898 61.024 384.41 60.608 384.89 60.064C385.402 59.52 385.818 58.896 386.138 58.192C386.458 57.456 386.618 56.736 386.618 56.032C386.618 54.56 386.042 53.328 384.89 52.336C383.738 51.344 382.138 50.848 380.09 50.848ZM380.186 77.824C382.362 77.824 384.074 77.376 385.322 76.48C386.57 75.552 387.194 74.304 387.194 72.736C387.194 71.616 386.874 70.672 386.234 69.904C385.626 69.104 384.522 68.496 382.922 68.08L377.786 66.688C377.306 66.56 376.746 66.608 376.106 66.832C375.498 67.056 374.89 67.424 374.282 67.936C373.706 68.448 373.226 69.088 372.842 69.856C372.458 70.624 372.266 71.456 372.266 72.352C372.266 74.048 372.906 75.392 374.186 76.384C375.498 77.344 377.498 77.824 380.186 77.824Z" fill="hsl(220, 24%, 44%)"/>
</svg>
