<svg width="1200" height="128" viewBox="0 0 1200 128" fill="none" xmlns="http://www.w3.org/2000/svg">
<rect width="1200" height="128" rx="12" fill="hsl(220, 24%, 78%)"/>
<path d="M493.104 76.816C493.616 76.816 493.872 77.04 493.872 77.488V81.424C493.872 81.584 493.808 81.744 493.68 81.904C493.552 82.064 493.344 82.144 493.056 82.144H474.816C474.304 82.144 474.048 81.92 474.048 81.472V77.488C474.048 77.04 474.288 76.816 474.768 76.816H480.144C480.432 76.816 480.576 76.72 480.576 76.528V54.208C480.576 53.792 480.384 53.632 480 53.728L474.912 55.408C474.304 55.568 474 55.312 474 54.64V51.856C474 51.568 474.048 51.376 474.144 51.28C474.24 51.152 474.4 51.024 474.624 50.896L482.352 47.008C482.736 46.816 483.04 46.688 483.264 46.624C483.52 46.56 483.824 46.528 484.176 46.528H487.056C487.472 46.528 487.68 46.784 487.68 47.296V76.384C487.68 76.672 487.824 76.816 488.112 76.816H493.104Z" fill="hsl(220, 24%, 44%)"/>
<path d="M508.903 66.88C510.375 65.568 511.575 64.432 512.503 63.472C513.463 62.512 514.215 61.648 514.759 60.88C515.335 60.112 515.735 59.392 515.959 58.72C516.183 58.016 516.295 57.28 516.295 56.512C516.295 55.392 516.007 54.448 515.431 53.68C514.887 52.912 514.167 52.32 513.271 51.904C512.407 51.488 511.431 51.28 510.343 51.28C509.479 51.28 508.615 51.44 507.751 51.76C506.887 52.08 506.039 52.608 505.207 53.344C504.407 54.048 503.655 55.008 502.951 56.224C502.855 56.416 502.695 56.528 502.471 56.56C502.279 56.592 502.039 56.528 501.751 56.368L498.199 54.496C497.911 54.336 497.751 54.128 497.719 53.872C497.687 53.616 497.767 53.36 497.959 53.104C499.527 50.672 501.399 48.896 503.575 47.776C505.783 46.624 508.199 46.048 510.823 46.048C513.191 46.048 515.303 46.464 517.159 47.296C519.015 48.096 520.487 49.28 521.575 50.848C522.663 52.416 523.207 54.32 523.207 56.56C523.207 57.904 522.967 59.168 522.487 60.352C522.039 61.536 521.287 62.736 520.231 63.952C519.175 65.168 517.767 66.512 516.007 67.984L506.839 75.712C506.647 75.84 506.551 75.968 506.551 76.096C506.583 76.224 506.775 76.288 507.127 76.288H522.727C523.271 76.288 523.543 76.512 523.543 76.96V81.376C523.543 81.6 523.479 81.792 523.351 81.952C523.223 82.08 522.999 82.144 522.679 82.144H498.631C498.247 82.144 497.975 82.08 497.815 81.952C497.687 81.824 497.623 81.584 497.623 81.232V78.112C497.623 77.92 497.655 77.744 497.719 77.584C497.815 77.392 497.991 77.152 498.247 76.864C498.535 76.544 498.967 76.144 499.543 75.664L508.903 66.88Z" fill="hsl(220, 24%, 44%)"/>
<path d="M542.691 46C544.739 46 546.627 46.432 548.355 47.296C550.083 48.128 551.587 49.344 552.867 50.944C554.179 52.544 555.187 54.48 555.891 56.752C556.595 59.024 556.947 61.584 556.947 64.432C556.947 68.208 556.323 71.456 555.075 74.176C553.859 76.864 552.179 78.944 550.035 80.416C547.891 81.856 545.427 82.576 542.643 82.576C539.891 82.576 537.427 81.856 535.251 80.416C533.075 78.944 531.363 76.864 530.115 74.176C528.899 71.488 528.291 68.256 528.291 64.48C528.291 61.6 528.643 59.04 529.347 56.8C530.083 54.528 531.091 52.592 532.371 50.992C533.683 49.36 535.203 48.128 536.931 47.296C538.691 46.432 540.611 46 542.691 46ZM542.643 77.488C544.179 77.488 545.475 77.056 546.531 76.192C547.587 75.296 548.387 73.904 548.931 72.016C549.475 70.096 549.747 67.584 549.747 64.48C549.747 61.28 549.459 58.704 548.883 56.752C548.339 54.768 547.539 53.328 546.483 52.432C545.427 51.504 544.147 51.04 542.643 51.04C541.139 51.04 539.859 51.504 538.803 52.432C537.747 53.328 536.931 54.768 536.355 56.752C535.779 58.736 535.491 61.312 535.491 64.48C535.491 67.552 535.779 70.048 536.355 71.968C536.931 73.888 537.747 75.296 538.803 76.192C539.859 77.056 541.139 77.488 542.643 77.488Z" fill="hsl(220, 24%, 44%)"/>
<path d="M576.348 46C578.396 46 580.284 46.432 582.012 47.296C583.74 48.128 585.244 49.344 586.524 50.944C587.836 52.544 588.844 54.48 589.548 56.752C590.252 59.024 590.604 61.584 590.604 64.432C590.604 68.208 589.98 71.456 588.732 74.176C587.516 76.864 585.836 78.944 583.692 80.416C581.548 81.856 579.084 82.576 576.3 82.576C573.548 82.576 571.084 81.856 568.908 80.416C566.732 78.944 565.02 76.864 563.772 74.176C562.556 71.488 561.948 68.256 561.948 64.48C561.948 61.6 562.3 59.04 563.004 56.8C563.74 54.528 564.748 52.592 566.028 50.992C567.34 49.36 568.86 48.128 570.588 47.296C572.348 46.432 574.268 46 576.348 46ZM576.3 77.488C577.836 77.488 579.132 77.056 580.188 76.192C581.244 75.296 582.044 73.904 582.588 72.016C583.132 70.096 583.404 67.584 583.404 64.48C583.404 61.28 583.116 58.704 582.54 56.752C581.996 54.768 581.196 53.328 580.14 52.432C579.084 51.504 577.804 51.04 576.3 51.04C574.796 51.04 573.516 51.504 572.46 52.432C571.404 53.328 570.588 54.768 570.012 56.752C569.436 58.736 569.148 61.312 569.148 64.48C569.148 67.552 569.436 70.048 570.012 71.968C570.588 73.888 571.404 75.296 572.46 76.192C573.516 77.056 574.796 77.488 576.3 77.488Z" fill="hsl(220, 24%, 44%)"/>
<path d="M629.203 80.752C629.587 81.264 629.747 81.632 629.683 81.856C629.651 82.048 629.395 82.144 628.915 82.144H623.731C623.091 82.144 622.627 81.936 622.339 81.52L616.771 73.696C616.547 73.376 616.371 73.216 616.243 73.216C616.147 73.216 615.971 73.376 615.715 73.696L610.003 81.52C609.715 81.936 609.251 82.144 608.611 82.144H605.251C604.771 82.144 604.451 82.016 604.291 81.76C604.131 81.504 604.291 81.072 604.771 80.464L612.931 70C613.123 69.744 613.203 69.52 613.171 69.328C613.171 69.136 613.075 68.912 612.883 68.656L604.915 57.856C604.723 57.6 604.675 57.344 604.771 57.088C604.899 56.832 605.155 56.704 605.539 56.704H610.483C610.835 56.704 611.107 56.752 611.299 56.848C611.491 56.944 611.667 57.104 611.827 57.328L616.963 64.528C617.219 64.912 617.475 64.912 617.731 64.528L622.675 57.328C622.835 57.104 623.011 56.944 623.203 56.848C623.395 56.752 623.667 56.704 624.019 56.704H627.715C628.131 56.704 628.355 56.8 628.387 56.992C628.419 57.184 628.355 57.408 628.195 57.664L620.707 67.744C620.515 68 620.419 68.224 620.419 68.416C620.451 68.608 620.563 68.832 620.755 69.088L629.203 80.752Z" fill="hsl(220, 24%, 44%)"/>
<path d="M661.948 76.816C662.46 76.816 662.716 77.04 662.716 77.488V81.424C662.716 81.584 662.652 81.744 662.524 81.904C662.396 82.064 662.188 82.144 661.9 82.144H643.66C643.148 82.144 642.892 81.92 642.892 81.472V77.488C642.892 77.04 643.132 76.816 643.612 76.816H648.988C649.276 76.816 649.42 76.72 649.42 76.528V54.208C649.42 53.792 649.228 53.632 648.844 53.728L643.756 55.408C643.148 55.568 642.844 55.312 642.844 54.64V51.856C642.844 51.568 642.892 51.376 642.988 51.28C643.084 51.152 643.244 51.024 643.468 50.896L651.196 47.008C651.58 46.816 651.884 46.688 652.108 46.624C652.364 46.56 652.668 46.528 653.02 46.528H655.9C656.316 46.528 656.524 46.784 656.524 47.296V76.384C656.524 76.672 656.668 76.816 656.956 76.816H661.948Z" fill="hsl(220, 24%, 44%)"/>
<path d="M677.747 66.88C679.219 65.568 680.418 64.432 681.346 63.472C682.306 62.512 683.059 61.648 683.603 60.88C684.179 60.112 684.579 59.392 684.803 58.72C685.027 58.016 685.139 57.28 685.139 56.512C685.139 55.392 684.851 54.448 684.275 53.68C683.731 52.912 683.011 52.32 682.115 51.904C681.251 51.488 680.275 51.28 679.187 51.28C678.323 51.28 677.458 51.44 676.594 51.76C675.73 52.08 674.883 52.608 674.051 53.344C673.251 54.048 672.498 55.008 671.794 56.224C671.698 56.416 671.538 56.528 671.314 56.56C671.122 56.592 670.882 56.528 670.594 56.368L667.042 54.496C666.754 54.336 666.595 54.128 666.562 53.872C666.531 53.616 666.611 53.36 666.803 53.104C668.371 50.672 670.243 48.896 672.419 47.776C674.627 46.624 677.043 46.048 679.667 46.048C682.035 46.048 684.147 46.464 686.003 47.296C687.859 48.096 689.331 49.28 690.419 50.848C691.507 52.416 692.051 54.32 692.051 56.56C692.051 57.904 691.811 59.168 691.331 60.352C690.883 61.536 690.131 62.736 689.075 63.952C688.019 65.168 686.61 66.512 684.85 67.984L675.682 75.712C675.49 75.84 675.395 75.968 675.395 76.096C675.427 76.224 675.619 76.288 675.971 76.288H691.57C692.114 76.288 692.387 76.512 692.387 76.96V81.376C692.387 81.6 692.323 81.792 692.195 81.952C692.067 82.08 691.843 82.144 691.523 82.144H667.475C667.091 82.144 666.818 82.08 666.658 81.952C666.53 81.824 666.467 81.584 666.467 81.232V78.112C666.467 77.92 666.498 77.744 666.562 77.584C666.659 77.392 666.834 77.152 667.09 76.864C667.378 76.544 667.811 76.144 668.387 75.664L677.747 66.88Z" fill="hsl(220, 24%, 44%)"/>
<path d="M710.767 46.048C713.231 46.048 715.407 46.48 717.295 47.344C719.215 48.176 720.719 49.328 721.807 50.8C722.895 52.272 723.439 53.984 723.439 55.936C723.439 57.312 723.055 58.576 722.287 59.728C721.519 60.848 720.335 61.904 718.735 62.896C718.223 63.184 718.207 63.456 718.687 63.712C720.223 64.448 721.455 65.248 722.383 66.112C723.311 66.976 723.983 67.92 724.399 68.944C724.815 69.968 725.023 71.088 725.023 72.304C725.023 74.416 724.415 76.256 723.199 77.824C721.983 79.392 720.287 80.592 718.111 81.424C715.935 82.224 713.407 82.624 710.527 82.624C707.807 82.624 705.423 82.272 703.375 81.568C701.327 80.832 699.743 79.776 698.623 78.4C697.503 76.992 696.943 75.312 696.943 73.36C696.943 71.728 697.343 70.272 698.143 68.992C698.975 67.68 700.415 66.432 702.463 65.248C702.783 65.088 702.959 64.944 702.991 64.816C703.023 64.688 702.863 64.528 702.511 64.336C701.679 63.792 700.911 63.184 700.207 62.512C699.503 61.808 698.943 60.992 698.527 60.064C698.111 59.136 697.903 58.032 697.903 56.752C697.903 54.8 698.415 53.024 699.439 51.424C700.495 49.792 701.983 48.496 703.903 47.536C705.823 46.544 708.111 46.048 710.767 46.048ZM710.863 50.848C709.679 50.848 708.607 51.072 707.647 51.52C706.687 51.936 705.935 52.528 705.391 53.296C704.847 54.064 704.575 54.96 704.575 55.984C704.575 58.256 705.871 59.728 708.463 60.4L712.639 61.552C713.087 61.68 713.583 61.6 714.127 61.312C714.671 61.024 715.183 60.608 715.663 60.064C716.175 59.52 716.591 58.896 716.911 58.192C717.231 57.456 717.391 56.736 717.391 56.032C717.391 54.56 716.815 53.328 715.663 52.336C714.511 51.344 712.911 50.848 710.863 50.848ZM710.959 77.824C713.135 77.824 714.847 77.376 716.095 76.48C717.343 75.552 717.967 74.304 717.967 72.736C717.967 71.616 717.647 70.672 717.007 69.904C716.399 69.104 715.295 68.496 713.695 68.08L708.559 66.688C708.079 66.56 707.519 66.608 706.879 66.832C706.271 67.056 705.663 67.424 705.055 67.936C704.479 68.448 703.999 69.088 703.615 69.856C703.231 70.624 703.039 71.456 703.039 72.352C703.039 74.048 703.679 75.392 704.959 76.384C706.271 77.344 708.271 77.824 710.959 77.824Z" fill="hsl(220, 24%, 44%)"/>
</svg>
