<svg width="360" height="128" viewBox="0 0 360 128" fill="none" xmlns="http://www.w3.org/2000/svg">
<rect width="360" height="128" rx="12" fill="hsl(220, 24%, 78%)"/>
<path d="M89 46.816C89 46.272 89.24 46 89.72 46H112.616C113.032 46 113.24 46.24 113.24 46.72V50.368C113.24 50.976 112.952 51.28 112.376 51.28H96.92C96.376 51.28 96.104 51.504 96.104 51.952V60.88C96.104 61.36 96.328 61.6 96.776 61.6H108.008C108.456 61.6 108.68 61.824 108.68 62.272V66.112C108.68 66.496 108.456 66.688 108.008 66.688H96.728C96.312 66.688 96.104 66.896 96.104 67.312V80.704C96.104 81.312 95.752 81.616 95.048 81.616H89.912C89.56 81.616 89.32 81.552 89.192 81.424C89.064 81.264 89 81.04 89 80.752V46.816Z" fill="hsl(220, 24%, 44%)"/>
<path d="M127.654 78.976C126.598 79.936 125.414 80.704 124.102 81.28C122.822 81.824 121.366 82.096 119.734 82.096C117.302 82.096 115.382 81.456 113.974 80.176C112.566 78.864 111.862 77.168 111.862 75.088C111.862 73.328 112.39 71.808 113.446 70.528C114.502 69.216 116.038 68.192 118.054 67.456C120.07 66.72 122.502 66.288 125.35 66.16L127.75 66.016C127.91 65.984 128.07 65.92 128.23 65.824C128.422 65.728 128.518 65.552 128.518 65.296V64.192C128.518 62.784 128.102 61.696 127.27 60.928C126.438 60.128 125.27 59.728 123.766 59.728C122.678 59.728 121.638 59.984 120.646 60.496C119.686 60.976 118.854 61.776 118.15 62.896C118.022 63.088 117.894 63.216 117.766 63.28C117.67 63.344 117.478 63.344 117.19 63.28L113.158 62.272C112.998 62.208 112.886 62.112 112.822 61.984C112.758 61.856 112.806 61.6 112.966 61.216C113.83 59.392 115.206 58.016 117.094 57.088C118.982 56.16 121.302 55.696 124.054 55.696C126.518 55.696 128.518 56.032 130.054 56.704C131.59 57.376 132.71 58.32 133.414 59.536C134.118 60.72 134.47 62.128 134.47 63.76V80.656C134.47 81.008 134.406 81.264 134.278 81.424C134.182 81.552 133.974 81.616 133.654 81.616H129.574C129.286 81.616 129.062 81.504 128.902 81.28C128.774 81.056 128.694 80.784 128.662 80.464L128.614 79.024C128.518 78.48 128.198 78.464 127.654 78.976ZM128.518 70C128.518 69.424 128.278 69.152 127.798 69.184L125.83 69.328C124.774 69.392 123.766 69.552 122.806 69.808C121.878 70.032 121.046 70.352 120.31 70.768C119.606 71.152 119.046 71.648 118.63 72.256C118.214 72.832 118.006 73.52 118.006 74.32C118.006 75.408 118.39 76.272 119.158 76.912C119.926 77.552 120.982 77.872 122.326 77.872C123.222 77.872 124.038 77.728 124.774 77.44C125.51 77.152 126.15 76.784 126.694 76.336C127.238 75.888 127.67 75.424 127.99 74.944C128.342 74.432 128.518 73.92 128.518 73.408V70Z" fill="hsl(220, 24%, 44%)"/>
<path d="M146.644 80.56C146.644 80.944 146.564 81.216 146.404 81.376C146.244 81.536 145.956 81.616 145.54 81.616H141.316C140.676 81.616 140.356 81.328 140.356 80.752L140.5 46.816C140.5 46.272 140.74 46 141.22 46H145.972C146.42 46 146.644 46.256 146.644 46.768V80.56Z" fill="hsl(220, 24%, 44%)"/>
<path d="M158.972 80.56C158.972 80.944 158.892 81.216 158.732 81.376C158.572 81.536 158.284 81.616 157.868 81.616H153.644C153.004 81.616 152.684 81.328 152.684 80.752L152.828 46.816C152.828 46.272 153.068 46 153.548 46H158.3C158.748 46 158.972 46.256 158.972 46.768V80.56Z" fill="hsl(220, 24%, 44%)"/>
<path d="M166.02 81.616C165.636 81.616 165.38 81.552 165.252 81.424C165.124 81.264 165.06 81.008 165.06 80.656V46.816C165.06 46.272 165.3 46 165.78 46H170.628C171.076 46 171.3 46.272 171.3 46.816V58.192C171.3 58.544 171.364 58.736 171.492 58.768C171.652 58.8 171.844 58.72 172.068 58.528C172.516 58.08 173.06 57.648 173.7 57.232C174.372 56.816 175.156 56.464 176.052 56.176C176.948 55.856 177.972 55.696 179.124 55.696C181.364 55.696 183.236 56.256 184.74 57.376C186.244 58.464 187.364 60 188.1 61.984C188.868 63.936 189.252 66.192 189.252 68.752C189.252 72.816 188.292 76.064 186.372 78.496C184.484 80.896 181.796 82.096 178.308 82.096C177.06 82.096 175.924 81.904 174.9 81.52C173.908 81.104 173.06 80.592 172.356 79.984C171.652 79.376 171.076 78.8 170.628 78.256C170.5 78.096 170.388 78.032 170.292 78.064C170.196 78.064 170.132 78.176 170.1 78.4L169.62 80.704C169.492 81.312 169.156 81.616 168.612 81.616H166.02ZM171.3 72.88C171.3 73.904 171.556 74.816 172.068 75.616C172.58 76.384 173.252 77.008 174.084 77.488C174.916 77.936 175.812 78.16 176.772 78.16C177.988 78.16 179.044 77.84 179.94 77.2C180.868 76.56 181.588 75.568 182.1 74.224C182.612 72.848 182.868 71.056 182.868 68.848C182.868 65.776 182.372 63.504 181.38 62.032C180.388 60.528 178.932 59.776 177.012 59.776C175.828 59.776 174.74 60.048 173.748 60.592C172.788 61.136 171.972 61.84 171.3 62.704V72.88Z" fill="hsl(220, 24%, 44%)"/>
<path d="M208.186 78.976C207.13 79.936 205.945 80.704 204.633 81.28C203.353 81.824 201.898 82.096 200.266 82.096C197.834 82.096 195.914 81.456 194.506 80.176C193.098 78.864 192.394 77.168 192.394 75.088C192.394 73.328 192.922 71.808 193.978 70.528C195.034 69.216 196.57 68.192 198.586 67.456C200.602 66.72 203.034 66.288 205.882 66.16L208.282 66.016C208.442 65.984 208.601 65.92 208.761 65.824C208.953 65.728 209.049 65.552 209.049 65.296V64.192C209.049 62.784 208.633 61.696 207.801 60.928C206.969 60.128 205.802 59.728 204.298 59.728C203.21 59.728 202.169 59.984 201.177 60.496C200.217 60.976 199.386 61.776 198.682 62.896C198.554 63.088 198.426 63.216 198.298 63.28C198.202 63.344 198.009 63.344 197.721 63.28L193.689 62.272C193.529 62.208 193.418 62.112 193.354 61.984C193.29 61.856 193.337 61.6 193.497 61.216C194.361 59.392 195.738 58.016 197.626 57.088C199.514 56.16 201.834 55.696 204.586 55.696C207.05 55.696 209.05 56.032 210.586 56.704C212.122 57.376 213.242 58.32 213.946 59.536C214.65 60.72 215.002 62.128 215.002 63.76V80.656C215.002 81.008 214.938 81.264 214.81 81.424C214.714 81.552 214.506 81.616 214.186 81.616H210.105C209.817 81.616 209.594 81.504 209.434 81.28C209.306 81.056 209.226 80.784 209.194 80.464L209.146 79.024C209.049 78.48 208.73 78.464 208.186 78.976ZM209.049 70C209.049 69.424 208.809 69.152 208.329 69.184L206.362 69.328C205.306 69.392 204.298 69.552 203.338 69.808C202.41 70.032 201.577 70.352 200.841 70.768C200.137 71.152 199.577 71.648 199.161 72.256C198.745 72.832 198.537 73.52 198.537 74.32C198.537 75.408 198.921 76.272 199.689 76.912C200.457 77.552 201.513 77.872 202.857 77.872C203.753 77.872 204.57 77.728 205.306 77.44C206.042 77.152 206.682 76.784 207.226 76.336C207.77 75.888 208.201 75.424 208.521 74.944C208.873 74.432 209.049 73.92 209.049 73.408V70Z" fill="hsl(220, 24%, 44%)"/>
<path d="M232.167 55.696C234.087 55.696 235.751 56.032 237.159 56.704C238.567 57.344 239.719 58.192 240.615 59.248C241.543 60.272 242.247 61.36 242.727 62.512C242.919 63.088 242.759 63.392 242.247 63.424L238.023 63.952C237.703 64.016 237.479 63.872 237.351 63.52C236.935 62.816 236.503 62.192 236.055 61.648C235.607 61.104 235.095 60.672 234.519 60.352C233.943 60.032 233.239 59.872 232.407 59.872C231.127 59.872 229.991 60.224 228.999 60.928C228.039 61.6 227.287 62.608 226.743 63.952C226.231 65.296 225.975 66.944 225.975 68.896C225.975 70.88 226.247 72.544 226.791 73.888C227.367 75.232 228.151 76.256 229.143 76.96C230.135 77.632 231.319 77.968 232.695 77.968C234.135 77.968 235.319 77.6 236.247 76.864C237.175 76.096 238.039 75.04 238.839 73.696C238.935 73.568 239.031 73.488 239.127 73.456C239.223 73.424 239.383 73.44 239.607 73.504L242.631 74.32C242.951 74.416 243.047 74.688 242.919 75.136C242.599 75.872 242.135 76.656 241.527 77.488C240.951 78.32 240.231 79.088 239.367 79.792C238.503 80.464 237.463 81.024 236.247 81.472C235.063 81.888 233.703 82.096 232.167 82.096C229.735 82.096 227.575 81.552 225.687 80.464C223.799 79.344 222.311 77.808 221.223 75.856C220.167 73.872 219.639 71.584 219.639 68.992C219.639 66.368 220.183 64.064 221.271 62.08C222.359 60.064 223.847 58.496 225.735 57.376C227.623 56.256 229.767 55.696 232.167 55.696Z" fill="hsl(220, 24%, 44%)"/>
<path d="M271.376 80.608C271.536 80.832 271.568 81.056 271.472 81.28C271.376 81.504 271.152 81.616 270.8 81.616H265.52C265.232 81.616 264.992 81.552 264.8 81.424C264.64 81.264 264.496 81.04 264.368 80.752L258.608 70C258.512 69.776 258.416 69.648 258.32 69.616C258.224 69.584 258.08 69.664 257.888 69.856L253.904 73.792C253.776 73.92 253.664 74.064 253.568 74.224C253.504 74.384 253.472 74.608 253.472 74.896V80.56C253.472 80.944 253.392 81.216 253.232 81.376C253.072 81.536 252.784 81.616 252.368 81.616H248.192C247.808 81.616 247.552 81.552 247.424 81.424C247.296 81.264 247.232 81.04 247.232 80.752V46.816C247.232 46.272 247.472 46 247.952 46H252.8C253.248 46 253.472 46.256 253.472 46.768V67.36C253.472 67.552 253.52 67.68 253.616 67.744C253.712 67.808 253.856 67.728 254.048 67.504L264.032 56.848C264.48 56.4 264.88 56.176 265.232 56.176H269.6C270.016 56.176 270.256 56.288 270.32 56.512C270.416 56.736 270.32 56.992 270.032 57.28L262.976 64.384C262.848 64.544 262.768 64.704 262.736 64.864C262.704 65.024 262.768 65.264 262.928 65.584L271.376 80.608Z" fill="hsl(220, 24%, 44%)"/>
</svg>
